<?xml version="1.0" encoding="UTF-8"?>
<svg version="1.1" xmlns="http://www.w3.org/2000/svg" width="225" height="225">
<path d="M0 0 C74.25 0 148.5 0 225 0 C225 74.25 225 148.5 225 225 C150.75 225 76.5 225 0 225 C0 150.75 0 76.5 0 0 Z " fill="#6255E3" transform="translate(0,0)"/>
<path d="M0 0 C74.25 0 148.5 0 225 0 C225 74.25 225 148.5 225 225 C150.75 225 76.5 225 0 225 C0 150.75 0 76.5 0 0 Z M98.56640625 25.29296875 C87.66059094 38.97722977 87.66059094 38.97722977 78.25968933 40.1096344 C72.12589293 40.56409608 66.0653634 40.31454762 59.9296875 40.0234375 C53.65518601 39.76999833 50.1998545 40.49561321 45 44 C42.31580851 46.31324686 42.31580851 46.31324686 41 50 C40.97506081 52.33320005 40.97789573 54.66677137 41 57 C40.86328125 60.71484375 40.86328125 60.71484375 40 64 C37.10440785 66.31734985 34.4686405 67.46353581 30.98046875 68.69140625 C26.91363871 70.47697383 24.95998886 73.08002229 23 77 C22.51723365 81.5584284 22.55443978 85.57800274 24.5625 89.75 C26.17075306 93.38605041 26.16412248 94.31642404 25 98 C23.40625 100.16796875 23.40625 100.16796875 21.5 102.1875 C18.28592589 105.63209172 16.84142459 107.48643892 16.6875 112.25 C16.65011719 112.99765625 16.61273437 113.7453125 16.57421875 114.515625 C17.5374485 120.13593806 20.97586313 123.102559 25.29296875 126.43359375 C38.97722977 137.33940906 38.97722977 137.33940906 40.1096344 146.74031067 C40.56409608 152.87410707 40.31454762 158.9346366 40.0234375 165.0703125 C39.76999833 171.34481399 40.49561321 174.8001455 44 180 C46.31324686 182.68419149 46.31324686 182.68419149 50 184 C52.33320005 184.02493919 54.66677137 184.02210427 57 184 C60.71484375 184.13671875 60.71484375 184.13671875 64 185 C66.31734985 187.89559215 67.46353581 190.5313595 68.69140625 194.01953125 C70.47697383 198.08636129 73.08002229 200.04001114 77 202 C82.43905568 202.37510729 86.11556044 201.89262926 91.04296875 199.55859375 C93.7341226 198.79046002 95.34452754 199.14909783 98 200 C100.16796875 201.59375 100.16796875 201.59375 102.1875 203.5 C106.20879221 207.25218088 108.10536763 208.10651054 113.734375 208.328125 C119.32131435 207.51898206 122.26694245 204.88430509 125.65234375 200.5859375 C137.38156878 186.01174559 137.38156878 186.01174559 146.7999115 184.82623291 C152.92813434 184.35529568 158.97618902 184.62506132 165.10546875 184.94140625 C171.37834281 185.22888671 174.80134831 184.50562832 180 181 C182.68419149 178.68675314 182.68419149 178.68675314 184 175 C184.02493919 172.66679995 184.02210427 170.33322863 184 168 C184.13671875 164.28515625 184.13671875 164.28515625 185 161 C187.89559215 158.68265015 190.5313595 157.53646419 194.01953125 156.30859375 C198.08636129 154.52302617 200.04001114 151.91997771 202 148 C202.48276635 143.4415716 202.44556022 139.42199726 200.4375 135.25 C198.82924694 131.61394959 198.83587752 130.68357596 200 127 C201.59375 124.83203125 201.59375 124.83203125 203.5 122.8125 C206.71407411 119.36790828 208.15857541 117.51356108 208.3125 112.75 C208.34988281 112.00234375 208.38726562 111.2546875 208.42578125 110.484375 C207.4625515 104.86406194 204.02413687 101.897441 199.70703125 98.56640625 C186.02277023 87.66059094 186.02277023 87.66059094 184.8903656 78.25968933 C184.43590392 72.12589293 184.68545238 66.0653634 184.9765625 59.9296875 C185.23000167 53.65518601 184.50438679 50.1998545 181 45 C178.68675314 42.31580851 178.68675314 42.31580851 175 41 C172.66679995 40.97506081 170.33322863 40.97789573 168 41 C164.28515625 40.86328125 164.28515625 40.86328125 161 40 C158.68265015 37.10440785 157.53646419 34.4686405 156.30859375 30.98046875 C154.52302617 26.91363871 151.91997771 24.95998886 148 23 C143.4415716 22.51723365 139.42199726 22.55443978 135.25 24.5625 C131.6156958 26.1699807 130.6815113 26.16524899 127 25 C124.8671875 23.40625 124.8671875 23.40625 122.875 21.5 C118.76552374 17.59839608 115.92715781 16.90396722 110.23046875 16.57421875 C104.79080135 17.6126141 101.80001649 21.09691599 98.56640625 25.29296875 Z " fill="#0D0D33" transform="translate(0,0)"/>
<path d="M0 0 C2.45703125 1.79296875 2.45703125 1.79296875 4.8125 4.1875 C5.60269531 4.96480469 6.39289063 5.74210937 7.20703125 6.54296875 C9 9 9 9 9.4226532 11.30154419 C8.82634387 15.10871845 6.67609114 17.03141568 4.03051758 19.63232422 C3.50210266 20.17110703 2.97368774 20.70988983 2.42926025 21.26499939 C0.68020641 23.04114311 -1.08661394 24.79827822 -2.85546875 26.5546875 C-4.0772662 27.78239209 -5.29839278 29.01076464 -6.51887512 30.23977661 C-9.07899134 32.81177658 -11.64819198 35.37425852 -14.22387695 37.93066406 C-17.52712111 41.21100436 -20.80486246 44.5155584 -24.07601452 47.82786369 C-26.59183402 50.36922868 -29.12154051 52.89639681 -31.65560341 55.41955948 C-32.87021922 56.63268614 -34.0802419 57.85042939 -35.28557396 59.07278061 C-36.9708907 60.77801001 -38.67415247 62.46299618 -40.38354492 64.14404297 C-40.87985916 64.65407364 -41.3761734 65.16410431 -41.88752747 65.68959045 C-44.19129611 67.91745601 -45.38051894 69.00671135 -48.65490723 68.97123718 C-51.02712312 67.98876676 -52.35146721 67.13526399 -54.13793945 65.31616211 C-54.97824455 64.47540382 -54.97824455 64.47540382 -55.83552551 63.61766052 C-56.42218491 63.01035599 -57.0088443 62.40305145 -57.61328125 61.77734375 C-58.22769577 61.15726944 -58.84211029 60.53719513 -59.47514343 59.89833069 C-61.43053458 57.92059417 -63.37154064 55.92939183 -65.3125 53.9375 C-66.63774625 52.59218652 -67.96390809 51.2477743 -69.29101562 49.90429688 C-72.53805073 46.61321872 -75.77225596 43.30999568 -79 40 C-77.54609682 36.14194839 -76.09687607 33.64137895 -73.1875 30.6875 C-72.52105469 29.99011719 -71.85460937 29.29273437 -71.16796875 28.57421875 C-68.47036093 26.61541524 -67.27623934 26.61761826 -64 27 C-62.05541992 28.37695312 -62.05541992 28.37695312 -60.23046875 30.28125 C-59.56982422 30.95800781 -58.90917969 31.63476562 -58.22851562 32.33203125 C-57.55498047 33.04746094 -56.88144531 33.76289062 -56.1875 34.5 C-55.49462891 35.21542969 -54.80175781 35.93085937 -54.08789062 36.66796875 C-52.38014301 38.43460421 -50.68513312 40.21182487 -49 42 C-45.64228362 40.54643729 -43.49572881 38.71571796 -40.95336914 36.10107422 C-40.16897964 35.3003952 -39.38459015 34.49971619 -38.57643127 33.67477417 C-37.73781052 32.81014557 -36.89918976 31.94551697 -36.03515625 31.0546875 C-34.24847865 29.23785654 -32.46135565 27.4214635 -30.67382812 25.60546875 C-27.8596596 22.73541568 -25.04881524 19.86239322 -22.24731445 16.97998047 C-19.54181203 14.20212572 -16.8210333 11.44000456 -14.09765625 8.6796875 C-13.26105972 7.81101044 -12.4244632 6.94233337 -11.56251526 6.04733276 C-10.38120277 4.85577072 -10.38120277 4.85577072 -9.17602539 3.64013672 C-8.48859756 2.93557343 -7.80116974 2.23101013 -7.09291077 1.50509644 C-4.49838318 -0.36073286 -3.13168891 -0.44447098 0 0 Z " fill="#FEFEFE" transform="translate(147,80)"/>
<path d="M0 0 C2.69656516 3.59542021 4.14035591 6.38076063 5.8125 10.48828125 C6.06749268 11.10970505 6.32248535 11.73112885 6.58520508 12.37138367 C7.39560051 14.34957515 8.19799592 16.33089364 9 18.3125 C9.80381432 20.28261891 10.60924678 22.25207083 11.41479492 24.22148132 C12.1475664 26.01551254 12.8766252 27.81105889 13.60546875 29.60668945 C14.59403883 32.01217536 15.60672843 34.39598973 16.64868164 36.77783203 C18.4398463 41.04879702 18.73884883 44.45068358 18 49 C15.15959013 54.79006628 11.05951899 57.57696791 5.3125 60.25 C3 61 3 61 0 61 C0 40.87 0 20.74 0 0 Z " fill="#8A8AFB" transform="translate(184,99)"/>
<path d="M0 0 C0 20.13 0 40.26 0 61 C-2.69656516 57.40457979 -4.14035591 54.61923937 -5.8125 50.51171875 C-6.19498901 49.57958305 -6.19498901 49.57958305 -6.58520508 48.62861633 C-7.39560051 46.65042485 -8.19799592 44.66910636 -9 42.6875 C-9.80381432 40.71738109 -10.60924678 38.74792917 -11.41479492 36.77851868 C-12.1475664 34.98448746 -12.8766252 33.18894111 -13.60546875 31.39331055 C-14.59403883 28.98782464 -15.60672843 26.60401027 -16.64868164 24.22216797 C-18.44329513 19.94297938 -18.72478626 16.55698946 -18 12 C-15.42950085 6.43058517 -11.30103118 3.73215365 -6 1 C-3 0 -3 0 0 0 Z " fill="#8A8AFB" transform="translate(41,65)"/>
<path d="M0 0 C5.42486687 2.50378471 8.59900507 6.62406713 11 12 C11.495 14.97 11.495 14.97 12 18 C-8.13 18 -28.26 18 -49 18 C-45.18909958 15.14182469 -41.6016018 13.4289044 -37.2421875 11.6796875 C-36.12579391 11.22349533 -36.12579391 11.22349533 -34.98684692 10.75808716 C-32.61842483 9.79156368 -30.24685041 8.83307551 -27.875 7.875 C-25.49674861 6.90803978 -23.11915886 5.93946938 -20.74172974 4.9704895 C-19.26439645 4.36905835 -17.78644788 3.76913593 -16.30783081 3.17086792 C-10.35192205 0.75750979 -6.49802877 -0.7573716 0 0 Z " fill="#8A8AFB" transform="translate(148,23)"/>
<path d="M0 0 C20.13 0 40.26 0 61 0 C58.14397366 2.14201976 56.3912627 3.42119712 53.27636719 4.7175293 C52.56172302 5.01761398 51.84707886 5.31769867 51.11077881 5.62687683 C49.96539642 6.09581108 49.96539642 6.09581108 48.796875 6.57421875 C48.00025452 6.90291458 47.20363403 7.23161041 46.38287354 7.57026672 C44.6997523 8.26170373 43.01528936 8.94988251 41.32958984 9.63500977 C38.766975 10.68057408 36.21370972 11.74698405 33.66015625 12.81445312 C32.01876167 13.48567864 30.37685024 14.15564193 28.734375 14.82421875 C27.97888367 15.14291428 27.22339233 15.4616098 26.44500732 15.78996277 C21.38755586 17.81104543 17.45120816 18.43605294 12 18 C6.58302103 15.45083342 3.40617461 11.38753039 1 6 C0.67 4.02 0.34 2.04 0 0 Z " fill="#8A8AFC" transform="translate(65,184)"/>
<path d="M0 0 C0 0.33 0 0.66 0 1 C-0.8343457 0.92555664 -1.66869141 0.85111328 -2.52832031 0.77441406 C-21.04110232 -0.88677075 -21.04110232 -0.88677075 -37.3359375 6.44921875 C-41.63880875 10.6330322 -45.49351786 15.1488907 -49.08837891 19.95288086 C-52.31775567 23.41115981 -55.31325535 23.93459575 -59.9375 24.375 C-67.0288032 24.1625265 -71.95711697 18.47593168 -77 14 C-58.05859909 -4.94140091 -23.98501779 -1.24972037 0 0 Z " fill="#453F95" transform="translate(172,184)"/>
<path d="M0 0 C16.33886957 24.50830435 15.43238394 48.58003356 14 77 C13.67 77 13.34 77 13 77 C13.11166504 75.74848145 13.11166504 75.74848145 13.22558594 74.47167969 C14.87846611 55.94837144 14.87846611 55.94837144 7.55078125 39.62890625 C3.36554727 35.30319743 -1.14979116 31.42291788 -5.95288086 27.7980957 C-8.6456337 25.43290492 -9.78535243 23.37274606 -10.3359375 19.8515625 C-10.49040045 11.04717411 -5.58531369 6.29278676 0 0 Z " fill="#454097" transform="translate(27,95)"/>
<path d="M0 0 C0.33 0 0.66 0 1 0 C0.92555664 0.8343457 0.85111328 1.66869141 0.77441406 2.52832031 C-0.87846611 21.05162856 -0.87846611 21.05162856 6.44921875 37.37109375 C10.63445273 41.69680257 15.14979116 45.57708212 19.95288086 49.2019043 C22.6456337 51.56709508 23.78535243 53.62725394 24.3359375 57.1484375 C24.49040045 65.95282589 19.58531369 70.70721324 14 77 C12.04566567 74.0684985 10.79127521 71.33364555 9.43359375 68.08984375 C8.94826172 66.93548828 8.46292969 65.78113281 7.96289062 64.59179688 C7.45951172 63.38587891 6.95613281 62.17996094 6.4375 60.9375 C5.43669466 58.55057291 4.43541687 56.16384384 3.43359375 53.77734375 C2.99072021 52.71765381 2.54784668 51.65796387 2.09155273 50.56616211 C1.43625728 49.02560954 0.74869411 47.49738822 0 46 C-0.08963847 44.51899189 -0.11757925 43.03400576 -0.11352539 41.55029297 C-0.11344986 40.62948944 -0.11337433 39.70868591 -0.11329651 38.75997925 C-0.10813522 37.76410797 -0.10297394 36.76823669 -0.09765625 35.7421875 C-0.0962413 34.72399933 -0.09482635 33.70581116 -0.09336853 32.6567688 C-0.087759 29.39614965 -0.07520488 26.13559849 -0.0625 22.875 C-0.05748623 20.66796974 -0.05292311 18.46093841 -0.04882812 16.25390625 C-0.03778648 10.83591419 -0.02103905 5.41796195 0 0 Z " fill="#454097" transform="translate(184,53)"/>
<path d="M0 0 C4.02453389 2.59917814 7.49125093 5.68700911 11 8.9375 C8.07983116 10.88427923 5.35321514 12.14459286 2.125 13.50390625 C0.40023437 14.2319043 0.40023437 14.2319043 -1.359375 14.97460938 C-2.56078125 15.47798828 -3.7621875 15.98136719 -5 16.5 C-6.20140625 17.00724609 -7.4028125 17.51449219 -8.640625 18.03710938 C-20.58370243 23.06471652 -20.58370243 23.06471652 -25.47143555 23.05102539 C-26.82249641 23.05091209 -26.82249641 23.05091209 -28.20085144 23.05079651 C-29.16968765 23.04563522 -30.13852386 23.04047394 -31.13671875 23.03515625 C-32.62858452 23.03303383 -32.62858452 23.03303383 -34.15058899 23.03086853 C-37.32958982 23.02526761 -40.50852043 23.01271496 -43.6875 23 C-45.84179586 22.99498512 -47.99609282 22.99042219 -50.15039062 22.98632812 C-55.43361774 22.97529788 -60.71680385 22.95855886 -66 22.9375 C-66 22.6075 -66 22.2775 -66 21.9375 C-64.74848145 22.04916504 -64.74848145 22.04916504 -63.47167969 22.16308594 C-44.94837144 23.81596611 -44.94837144 23.81596611 -28.62890625 16.48828125 C-24.30319743 12.30304727 -20.42291788 7.78770884 -16.7980957 2.98461914 C-12.27704307 -2.16256705 -6.13840769 -2.17401939 0 0 Z " fill="#443F95" transform="translate(119,18.0625)"/>
</svg>
